<?xml version="1.0" standalone="no"?><!DOCTYPE svg PUBLIC "-//W3C//DTD SVG 1.1//EN" "http://www.w3.org/Graphics/SVG/1.1/DTD/svg11.dtd"><svg t="1709177008029" class="icon" viewBox="0 0 1024 1024" version="1.1" xmlns="http://www.w3.org/2000/svg" p-id="13077" xmlns:xlink="http://www.w3.org/1999/xlink" width="32" height="32"><path d="M785.066667 113.777778a125.155556 125.155556 0 0 1 124.928 117.532444L910.222222 238.933333v275.000889h-68.266666V238.933333a56.888889 56.888889 0 0 0-51.086223-56.604444L785.066667 182.044444H238.933333a56.888889 56.888889 0 0 0-56.604444 51.086223L182.044444 238.933333v546.133334a56.888889 56.888889 0 0 0 51.086223 56.604444l5.802666 0.284445h347.818667V910.222222H238.933333a125.155556 125.155556 0 0 1-124.928-117.532444L113.777778 785.066667V238.933333a125.155556 125.155556 0 0 1 117.532444-124.928L238.933333 113.777778h546.133334z" fill="#bfbfbf" p-id="13078"></path><path d="M557.511111 750.933333h316.757333V682.666667H557.511111z" fill="#bfbfbf" p-id="13079"></path><path d="M682.666667 875.52h68.266666V557.511111H682.666667zM352.711111 329.955556h318.577778c15.189333 0 22.755556 7.566222 22.755555 22.755555s-7.566222 22.755556-22.755555 22.755556H352.711111c-15.189333 0-22.755556-7.566222-22.755555-22.755556s7.566222-22.755556 22.755555-22.755555zM352.711111 466.488889h318.577778c15.189333 0 22.755556 7.566222 22.755555 22.755555s-7.566222 22.755556-22.755555 22.755556H352.711111c-15.189333 0-22.755556-7.566222-22.755555-22.755556s7.566222-22.755556 22.755555-22.755555zM352.711111 603.022222h136.533333c15.189333 0 22.755556 7.566222 22.755556 22.755556s-7.566222 22.755556-22.755556 22.755555H352.711111c-15.189333 0-22.755556-7.566222-22.755555-22.755555s7.566222-22.755556 22.755555-22.755556z" fill="#bfbfbf" p-id="13080"></path></svg>