<?xml version="1.0" standalone="no"?><!DOCTYPE svg PUBLIC "-//W3C//DTD SVG 1.1//EN" "http://www.w3.org/Graphics/SVG/1.1/DTD/svg11.dtd"><svg t="1709007952349" class="icon" viewBox="0 0 1024 1024" version="1.1" xmlns="http://www.w3.org/2000/svg" p-id="2940" width="32" height="32" xmlns:xlink="http://www.w3.org/1999/xlink"><path d="M572.635429 272.219429c5.156571 0 8.155429-3.437714 8.996571-8.155429 13.293714-71.131429 12.873143-72.850286 87.003429-87.405714 5.138286-0.877714 8.155429-3.437714 8.155428-8.594286 0-5.558857-3.017143-8.137143-8.155428-8.996571-74.130286-14.994286-73.691429-16.274286-87.003429-87.424-0.841143-4.717714-3.84-8.137143-8.996571-8.137143-5.12 0-7.716571 3.419429-8.557715 8.137143-13.714286 71.131429-12.873143 72.411429-87.442285 87.424-4.717714 0.859429-8.137143 3.437714-8.137143 8.996571 0 5.156571 3.437714 7.716571 8.137143 8.594286 75.008 14.555429 73.728 16.274286 87.442285 87.405714 0.841143 4.717714 3.419429 8.155429 8.557715 8.155429zM777.929143 561.92c7.716571 0 13.275429-5.558857 14.134857-13.714286 14.153143-115.273143 18.852571-116.992 135.862857-136.283428 9.435429-1.700571 14.994286-5.997714 14.994286-14.573715 0-8.137143-5.558857-13.275429-13.275429-14.555428-118.729143-20.150857-123.428571-21.010286-137.581714-136.301714-0.859429-8.137143-6.418286-13.714286-14.134857-13.714286-8.155429 0-13.714286 5.577143-14.573714 13.293714-14.994286 115.291429-18.432 116.571429-137.563429 136.722286-7.716571 1.28-13.293714 6.418286-13.293714 14.555428 0 8.155429 5.577143 12.873143 13.293714 14.573715 119.131429 19.291429 123.428571 21.010286 137.563429 137.142857a14.171429 14.171429 0 0 0 14.573714 12.854857zM455.643429 960.512c156.854857 0 283.721143-78.848 341.577142-212.992 7.698286-18.432 5.12-32.566857-2.998857-41.142857-7.716571-7.277714-20.571429-8.996571-36.022857-2.998857-32.128 12.854857-71.552 20.132571-120.850286 20.132571-191.561143 0-314.989714-119.570286-314.989714-307.712 0-51.858286 9.856-103.277714 23.131429-130.285714 8.594286-17.133714 7.716571-31.707429 0.438857-40.704-8.137143-9.435429-22.710857-12.434286-42.861714-4.297143-131.565714 53.577143-221.988571 190.72-221.988572 351.012571 0 208.713143 153.417143 369.005714 374.564572 369.005715z m0.859428-65.133714c-183.003429 0-310.290286-133.302857-310.290286-309.010286 0-107.995429 50.139429-203.136 129.846858-263.990857-10.276571 27.849143-16.274286 70.710857-16.274286 111.853714 0 210.852571 145.718857 352.292571 361.289143 352.292572 38.582857 0 73.709714-4.717714 91.702857-11.154286-53.577143 74.148571-149.138286 120.009143-256.274286 120.009143z" p-id="2941" fill="#bfbfbf"></path></svg>